<mxfile host="Electron" modified="2024-07-24T20:01:28.835Z" agent="Mozilla/5.0 (Windows NT 10.0; Win64; x64) AppleWebKit/537.36 (KHTML, like Gecko) draw.io/24.6.4 Chrome/124.0.6367.207 Electron/30.0.6 Safari/537.36" etag="Qsyrg-AmFFXRhe7Ljw0I" version="24.6.4" type="device">
  <diagram name="ページ1" id="LE8fIzdrHe0wcv1LTvfw">
    <mxGraphModel dx="2100" dy="1242" grid="1" gridSize="10" guides="1" tooltips="1" connect="1" arrows="1" fold="1" page="1" pageScale="1" pageWidth="1600" pageHeight="1200" math="0" shadow="0">
      <root>
        <mxCell id="0" />
        <mxCell id="cFaB45KztUIKXS-_cTrr-4" value="背景" style="locked=1;" parent="0" visible="0" />
        <mxCell id="cFaB45KztUIKXS-_cTrr-5" value="" style="rounded=0;whiteSpace=wrap;html=1;strokeWidth=3;" parent="cFaB45KztUIKXS-_cTrr-4" vertex="1">
          <mxGeometry x="1" y="1" width="1595" height="1180" as="geometry" />
        </mxCell>
        <mxCell id="cFaB45KztUIKXS-_cTrr-6" value="" style="rounded=0;whiteSpace=wrap;html=1;fillColor=#B3B3B3;fontColor=#333333;strokeColor=#666666;" parent="cFaB45KztUIKXS-_cTrr-4" vertex="1">
          <mxGeometry width="1595" height="60" as="geometry" />
        </mxCell>
        <mxCell id="cFaB45KztUIKXS-_cTrr-7" value="&lt;font style=&quot;font-size: 48px;&quot;&gt;×&lt;/font&gt;" style="rounded=0;whiteSpace=wrap;html=1;" parent="cFaB45KztUIKXS-_cTrr-4" vertex="1">
          <mxGeometry x="1550" y="10" width="40" height="40" as="geometry" />
        </mxCell>
        <mxCell id="cFaB45KztUIKXS-_cTrr-8" value="" style="rounded=0;whiteSpace=wrap;html=1;" parent="cFaB45KztUIKXS-_cTrr-4" vertex="1">
          <mxGeometry x="830" y="670" width="120" height="60" as="geometry" />
        </mxCell>
        <mxCell id="cFaB45KztUIKXS-_cTrr-9" value="ウインドウ" style="locked=1;" parent="0" />
        <mxCell id="cFaB45KztUIKXS-_cTrr-10" value="" style="rounded=0;whiteSpace=wrap;html=1;strokeWidth=3;" parent="cFaB45KztUIKXS-_cTrr-9" vertex="1">
          <mxGeometry x="15" y="10" width="1584" height="1170" as="geometry" />
        </mxCell>
        <mxCell id="cFaB45KztUIKXS-_cTrr-11" value="" style="rounded=0;whiteSpace=wrap;html=1;fillColor=#B3B3B3;fontColor=#333333;strokeColor=#666666;" parent="cFaB45KztUIKXS-_cTrr-9" vertex="1">
          <mxGeometry x="14" y="10" width="1586" height="60" as="geometry" />
        </mxCell>
        <mxCell id="cFaB45KztUIKXS-_cTrr-12" value="&lt;font style=&quot;font-size: 48px;&quot;&gt;×&lt;/font&gt;" style="rounded=0;whiteSpace=wrap;html=1;" parent="cFaB45KztUIKXS-_cTrr-9" vertex="1">
          <mxGeometry x="1554" y="20" width="40" height="40" as="geometry" />
        </mxCell>
        <mxCell id="cFaB45KztUIKXS-_cTrr-14" value="名称未設定レイヤ" style="" parent="0" />
        <mxCell id="HvR4dSRWBfD3urc1JDpB-6" value="&lt;font style=&quot;font-size: 30px;&quot;&gt;選挙管理委員会でこの政治団体の政治資金収支報告書が開示されていないときは、あわせて内容のわかる電子データを提出してください&lt;/font&gt;" style="text;html=1;strokeColor=none;fillColor=none;align=left;verticalAlign=middle;whiteSpace=wrap;rounded=0;" parent="cFaB45KztUIKXS-_cTrr-14" vertex="1">
          <mxGeometry x="54" y="330" width="1116" height="80" as="geometry" />
        </mxCell>
        <mxCell id="HvR4dSRWBfD3urc1JDpB-8" value="&lt;span style=&quot;font-size: 30px;&quot;&gt;未登録既存団体の登録依頼&lt;/span&gt;" style="text;html=1;strokeColor=none;fillColor=none;align=left;verticalAlign=middle;whiteSpace=wrap;rounded=0;fontStyle=4" parent="cFaB45KztUIKXS-_cTrr-14" vertex="1">
          <mxGeometry x="54" y="105" width="1446" height="50" as="geometry" />
        </mxCell>
        <mxCell id="HvR4dSRWBfD3urc1JDpB-15" value="&lt;span style=&quot;font-size: 30px;&quot;&gt;更新&lt;/span&gt;" style="rounded=1;whiteSpace=wrap;html=1;fillColor=#CCCCCC;" parent="cFaB45KztUIKXS-_cTrr-14" vertex="1">
          <mxGeometry x="1344" y="1080" width="210" height="60" as="geometry" />
        </mxCell>
        <mxCell id="HvR4dSRWBfD3urc1JDpB-16" value="&lt;span style=&quot;font-size: 30px;&quot;&gt;キャンセル&lt;/span&gt;" style="rounded=1;whiteSpace=wrap;html=1;" parent="cFaB45KztUIKXS-_cTrr-14" vertex="1">
          <mxGeometry x="1094" y="1080" width="210" height="60" as="geometry" />
        </mxCell>
        <mxCell id="8Hxk6lD6Y1Y_H0gw2qUc-2" value="" style="rounded=0;whiteSpace=wrap;html=1;" parent="cFaB45KztUIKXS-_cTrr-14" vertex="1">
          <mxGeometry x="54" y="420" width="830" height="60" as="geometry" />
        </mxCell>
        <mxCell id="8Hxk6lD6Y1Y_H0gw2qUc-4" value="&lt;span style=&quot;font-size: 30px;&quot;&gt;政治団体名&lt;/span&gt;" style="rounded=0;whiteSpace=wrap;html=1;align=right;dashed=1;dashPattern=8 8;verticalAlign=bottom;" parent="cFaB45KztUIKXS-_cTrr-14" vertex="1">
          <mxGeometry x="84" y="240" width="310" height="46" as="geometry" />
        </mxCell>
        <mxCell id="8Hxk6lD6Y1Y_H0gw2qUc-5" value="&lt;font style=&quot;font-size: 30px;&quot;&gt;サンプル政治団体&lt;/font&gt;" style="rounded=0;whiteSpace=wrap;html=1;align=left;" parent="cFaB45KztUIKXS-_cTrr-14" vertex="1">
          <mxGeometry x="414" y="238" width="566" height="48" as="geometry" />
        </mxCell>
        <mxCell id="g7l7Ze3qlmc8qRdJsH5r-4" value="&lt;span style=&quot;font-size: 30px;&quot;&gt;選挙管理委員会&lt;/span&gt;" style="rounded=0;whiteSpace=wrap;html=1;align=right;dashed=1;dashPattern=8 8;verticalAlign=top;" parent="cFaB45KztUIKXS-_cTrr-14" vertex="1">
          <mxGeometry x="101" y="166" width="290" height="54" as="geometry" />
        </mxCell>
        <mxCell id="g7l7Ze3qlmc8qRdJsH5r-5" value="&lt;span style=&quot;font-size: 30px;&quot;&gt;ちゃらんぽらん政治団体&lt;/span&gt;" style="rounded=0;whiteSpace=wrap;html=1;align=left;fillColor=#CCCCCC;" parent="cFaB45KztUIKXS-_cTrr-14" vertex="1">
          <mxGeometry x="591" y="166" width="529" height="48" as="geometry" />
        </mxCell>
        <mxCell id="g7l7Ze3qlmc8qRdJsH5r-6" value="&lt;span style=&quot;font-size: 30px;&quot;&gt;1111333&lt;/span&gt;" style="rounded=0;whiteSpace=wrap;html=1;align=left;fillColor=#CCCCCC;" parent="cFaB45KztUIKXS-_cTrr-14" vertex="1">
          <mxGeometry x="411" y="166" width="159" height="48" as="geometry" />
        </mxCell>
        <mxCell id="g7l7Ze3qlmc8qRdJsH5r-7" value="&lt;span style=&quot;font-size: 30px;&quot;&gt;検索&lt;/span&gt;" style="rounded=1;whiteSpace=wrap;html=1;fillColor=#FFFFFF;strokeWidth=3;" parent="cFaB45KztUIKXS-_cTrr-14" vertex="1">
          <mxGeometry x="1138" y="170" width="210" height="45" as="geometry" />
        </mxCell>
        <mxCell id="QchtVA_tP81TK0P9Ngdz-0" value="&lt;span style=&quot;font-size: 30px;&quot;&gt;Upload&lt;/span&gt;" style="rounded=1;whiteSpace=wrap;html=1;fillColor=#FFFFFF;strokeWidth=3;" vertex="1" parent="cFaB45KztUIKXS-_cTrr-14">
          <mxGeometry x="960" y="420" width="210" height="60" as="geometry" />
        </mxCell>
      </root>
    </mxGraphModel>
  </diagram>
</mxfile>
